<svg fill="#fac726" xmlns="http://www.w3.org/2000/svg" data-name="Layer 1" viewBox="0 0 1288.16 248.79"><path d="M1279.53 7.62q-51.18-1.69-102.38-3.09c-8.62-.23-13.36 4.83-15.15 13.39-2.66 12.67-6.08 25.19-9.26 37.75a13.15 13.15 0 0 1-1.89 3.17l-1.16-.13a39.89 39.89 0 0 1-.9-5c-.65-12.46-1.19-24.94-1.83-37.4-.46-8.88-3.72-12.16-12.47-11.68-13.13.72-26.22 2.06-39.35 2.81-30.59 1.76-61.18 3.34-91.77 5-6.3.34-9.92 3.11-10.06 9.37-.37 17.63-.45 35.28-.13 52.91.13 7 4 10 11.07 10 4 0 8-.09 12-.18 3.25-.07 5.24 1.33 4.93 4.73-.67 7.12-1.2 14.27-2.4 21.3-1.88 11-4.34 21.85-6.45 32.78q-3.68 19.09-7.17 38.21c-2 11-4.44 21.88-5.68 32.93-1.43 12.81 1 15.35 13.67 17.38.49.08 1 .23 1.48.27q24.39 1.84 48.79 3.65c5.33.4 9.15-1.78 10.57-7.07 1.38-5.12 2.34-10.36 3.6-15.52 3.63-14.84 7.5-29.62 11-44.51 4.77-20.55 9.15-41.2 13.89-61.76 1.87-8.08 4.37-16 6.42-24 1.2-4.66 4.18-6.1 8.75-6.48 8.6-.72 17.14-2.08 25.71-3.13a37.19 37.19 0 0 1 3.9 0c-1.38 5.63-2.51 10.63-3.84 15.57-1.94 7.21-4.18 14.35-6 21.59-3.45 13.69-6.76 27.42-10 41.16-3.68 15.53-7.33 31.06-10.8 46.64-1.44 6.46.21 12 5.25 16.75 7.53 7.07 14.52 14.71 22.1 21.73 5.69 5.26 11.32 11.15 19.85 11.52a92.58 92.58 0 0 0 11.39-.6c19.9-1.59 39.81-3.15 59.71-4.88 7.31-.63 11.29-4.8 12.33-12.14.49-3.46.92-6.94 1.67-10.34 2.18-10.07 4.71-20.06 6.73-30.16 1.69-8.43-1-11.4-9.62-11.44-12.17-.06-24.33 0-36.5 0-11 0-11.27-.49-9-11.38 1-5 3.27-6.93 8.45-6.93 11.32 0 22.65-.44 34-1 16.59-.82 18.69-3.09 21.19-18.82a302 302 0 0 1 6.28-29.73c3.69-14 .81-18.21-13.57-18.34h-5c-9.67 0-19.34.21-29-.17-2.19-.08-5.7-1.78-6.2-3.46-2.37-7.93 4.23-15.77 12.44-16.28q20.93-1.28 41.81-3.33c7.77-.76 9.37-2.91 10.3-10.84.35-3 1.35-5.83 1.84-8.78 1.79-10.91 3.9-21.8 5.09-32.78.61-7.15-1.45-9.03-8.63-9.26ZM979.18 4.67q-22-.75-44-1.06c-8.35-.14-9.67 1.93-11.21 9.94-2.64 13.69-6.15 27.2-9.45 40.75-.56 2.32-1.89 4.45-3.49 8.08a40.13 40.13 0 0 1-2.53-4.86c-2.41-7.78-4.66-15.59-7.08-23.36-2.81-9-5.44-18.13-8.75-27C891.11 3 887.62.42 882.56.51c-9.66.16-19.32 0-29 0-4.95 0-9.55.3-14.35 2.69-11.2 5.63-17.55 13.93-19.1 26.53-1.33 10.7-3.58 21.29-5.66 31.89-1.89 9.62-4.24 19.15-6.13 28.76-3.34 17-6.33 34-9.74 50.92-4.62 23-9.48 45.9-14.29 68.83-1.06 5-.15 9.45 4.23 12.37 4.54 3 9.11 6.32 14.15 8.2 9.79 3.65 19.92 6.37 29.9 9.51 10.24 3.22 12.43 2.28 17-7.51a22.28 22.28 0 0 0 1.6-4.7c3.16-14.62 6.22-29.26 9.39-43.88 1.3-6 2.63-12 4.28-17.93.42-1.5 2.09-2.65 3.18-4 .89 1.26 2.13 2.4 2.6 3.79 1.79 5.36 3.26 10.81 5 16.19 5 15.8 10.2 31.57 15.19 47.39 2.12 6.74 4.82 9.07 11.8 9.08 10.5 0 21-.12 31.49-.19s15.23-4.12 17-14.4q2.61-15 5.39-29.94c1.5-8 3.1-16 4.75-24 2.13-10.25 4.41-20.47 6.52-30.72q2.25-11 4.24-22c1.93-10.8 3.7-21.63 5.6-32.43 4-22.57 8.14-45.12 11.95-67.73 1.56-9.39-.91-12.24-10.37-12.56ZM598.87 70.69c-1-17.36-7.45-32.37-20.37-44.13-18.32-16.68-40.76-23.49-64.83-26-3.79-.39-7.65-.06-11.49-.06v.36c-6.66 0-13.44-.8-20 .19-9.95 1.51-19.69 4.34-29.55 6.45-15.5 3.32-29.66 9.81-42.81 18.42-2.71 1.77-5.73 5.67-5.71 8.57.15 17.8 1.11 35.6 1.83 53.39.15 3.7 2.19 5.68 5.84 6.34 5.86 1.07 6.63 2.26 5.83 8-.25 1.81-.35 3.65-.64 5.45-3.46 21.66-6.82 43.33-10.47 64.95a224.3 224.3 0 0 1-5.18 23.36c-3.11 11.06-.67 20.15 8.54 27q10.59 7.9 21.75 15c10.53 6.74 21.76 7.78 33.06 2.13 11.15-5.57 22.07-11.59 33.07-17.45a249 249 0 0 0 65.93-50.42c12.61-13.56 22.58-28.9 28.51-46.44 6.07-17.75 7.76-36.33 6.69-55.11Zm-83.88 50.22c-7.08 9.4-15.45 17.43-25.94 23-1.32.7-3.87 1.39-4.42.79a6.45 6.45 0 0 1-1.23-4.84q4.71-27.47 9.81-54.96c1.09-5.91 8.92-9.06 15.49-6.49 9.83 3.84 12.85 10.1 14.42 23.84-.24 7.14-3.9 13.03-8.13 18.66ZM776.46 185.05q-4.92-23.28-10.2-46.47c-1.86-8.27-4.1-16.44-5.91-24.71-3.37-15.42-6.36-30.92-9.84-46.32-3.74-16.51-7.58-33-12-49.35-1-3.73-4-8.51-7.28-9.72-7.22-2.69-15.17-3.42-22.82-4.94-1.95-.39-3.9-.73-5.84-1.15-10.15-2.23-20.43-5.46-29 4a4.61 4.61 0 0 1-2.09 1.33c-11.59 3.1-16.72 12.35-21.34 22.18q-15.39 32.69-30.94 65.3c-9.05 18.85-18.35 37.58-27.47 56.41-6.95 14.32-13.72 28.78-20.62 43.09-5.79 11.95-5 15.06 6.54 22.12 3.38 2.08 6.87 4 10.33 5.95 10.37 5.85 20.6 12 31.2 17.4 4.86 2.49 10 .33 12.85-4.39q6-10 11.37-20.34c2.08-4 4.83-6 9.45-5.91 8.49.2 17 .06 25.49.06v.05h25.49c6.34 0 7.12 1.26 8.36 7.34a196.52 196.52 0 0 0 6.61 25.48c2.31 6.58 7.36 8 13.17 4.27 14.36-9.32 28.52-18.94 42.65-28.59 4.1-2.81 6.36-6.94 5.6-12-1.11-7.09-2.29-14.12-3.76-21.09Zm-92.26-38.84c-2.47-1-6.17-1.48-7.06-3.29s.59-5.21 1.6-7.68a94.44 94.44 0 0 1 5.4-10.67c.66-1.15 2.1-2.62 3.12-2.58s2.66 1.61 2.94 2.77a109.65 109.65 0 0 1 2.85 15.18c.43 4.37-1.74 5.53-8.85 6.27ZM377.45 23.39c-.37-2.26-3-5.52-5-5.86-5.69-.94-9.25-4.92-13.72-7.62-10.06-6.09-20.54-8.09-31.74-2.91-7.2 3.33-14.36 6.94-21.89 9.23a74.54 74.54 0 0 1-19.25 2.7c-15.26.44-30.54-.08-45.78.5-7.84.3-16 1-23.33 3.5-11.59 3.92-22.42 10.09-34 14.2-11.21 4-20.65 9.79-27.36 19.69-4.75 7-12.38 9.76-19.5 13.24-9.21 4.5-18.58 8.66-27.64 13.44-4.06 2.15-4.24 5.5-1.56 9.27 2.9 4.07 17.06 8.4 21.43 6.2a5.94 5.94 0 0 0 2.77-4.15c.09-1-1.64-2.53-2.86-3.36s-2.81-1.09-4.55-1.7c5.85-6.22 7.51-6.13 10.59.08 1.1 2.22 1.62 4.77 2.93 6.83 1.14 1.8 2.76 3.94 4.61 4.51a55 55 0 0 0 11.81 1.94c4.75.37 6.55-2.19 5.25-6.95-.21-.77-.44-1.53-.79-2.74 9-2 12.54-8.78 14.72-16.67.44-1.6 1.32-3.06 1.87-4.63 1.31-3.76 3.47-3.88 6.53-1.89 7.45 4.84 8.83 12.78 2.51 19.25-3.76 3.86-8.52 6.79-13 9.91-4.13 2.88-5.22 5.54-2.51 9.63 4.59 6.89 9.67 13.46 14.39 20.27a66.1 66.1 0 0 1 3.78 7l-1.15 1.39a63 63 0 0 0-7.75-2.1c-4.5-.64-9.65-2.43-13.47-1-6.67 2.56-13.17 2.77-20 2.92-7 .16-11.31-2.64-13.89-9-3.32-8.19-8.08-14.66-16.85-18.49-8.12-3.54-15.21-9.39-23-13.81-2.45-1.39-5.68-1.42-8.55-2.07-.63 2.91-2.38 6.14-1.66 8.66 1.38 4.87 4.25 9.31 6.34 14 2.89 6.5 6.12 12.91 8.29 19.66 1.63 5-.4 6.94-5.4 8.83-6.31 2.39-12.34 5.47-18.62 8a7.76 7.76 0 0 1-5-.27c-5.92-2.17-11.68-4.78-17.62-6.88a13 13 0 0 0-6.36-.38c-3.55.62-4.88 2.56-2.54 6 3.17 4.68 6.09 9.53 9.27 14.21 4.41 6.51 3.57 11.31-3.15 15.51-2.67 1.67-5.77 2.68-8.38 4.43-1.44 1-2.26 2.87-3.37 4.35 1.68 1.05 3.27 2.83 5 3 4.28.47 8.66 0 13 .3 3.36.25 6.56 1.25 7 6.44-7.75.54-15.36 1.95-22.82 1.4-12-.89-21.8 5.37-32.54 8.45-4 1.13-3.74 5.48.08 7.42a35 35 0 0 0 8.82 3.39c6.06 1.19 9.41 5.17 12.14 10.18 1.66 3.07 3.48 6.06 5.39 9 2.1 3.22 5.15 3.64 8.79 3.09 3.46-.52 4.77-2.58 5.48-5.56.34-1.46.8-2.89 1.24-4.32 2.2-7.07 3.73-7.8 10.84-5.2 2.19.81 4.38 2.17 6.59 2.19 2.37 0 4.75-1.22 7.13-1.91-1-2.27-1.72-4.84-3.23-6.73s-4-2.49-5.45-4.23c-.8-1-1-3.75-.2-4.55 6.8-7.07 9.92-6.74 15.63 1.31 1 1.34 1.59 2.9 2.45 4.32 2.32 3.83 4.29 7.95 7.12 11.36 3.56 4.29 6.57 3.56 8.1-1.79 3.45-12 1.37-23-6.62-32.83-4.88-6-3.09-11.16 4.4-12.93 1.92-.45 4-.21 6-.43 3.3-.37 6.71-.48 9.83-1.46a5.84 5.84 0 0 0 3.47-4.08c.11-1.41-1.55-3.47-3-4.36a10.21 10.21 0 0 0-5.74-1.27 110.12 110.12 0 0 0-13.78 1.71c-8.61 1.67-15.77-3.3-15.08-9.74 11.41 1.54 22.91 2.68 34.21 4.89 3.47.67 6.75 3.9 9.46 6.6 6.83 6.8 13.25 14 19.91 21 2.43 2.54 5.5 3.69 8.48 1.28 3.27-2.66 1.2-5.57-.21-8.49s-3.16-6.09-3.28-9.2a82.47 82.47 0 0 1 1.33-16.27c.39-2.41 1.64-5.81 3.46-6.63a53 53 0 0 1 14.21-3.92c4.24-.61 8.68.28 13-.17 6.64-.68 12.64-2.85 15.78-11.22 3.16 3.6 5.49 6.83 8.37 9.44 10.62 9.59 21.67 18.71 32 28.54 5.59 5.3 11.73 7.06 19 6.49 5-.38 6.51-2.42 5.19-7.21-1.06-3.84-2.16-7.67-3.07-11.54-2.1-8.88-4-17.79-6.15-26.67-2-8.5-4.29-16.95-6.25-25.46-.28-1.21.52-2.66.82-4 1.18.44 2.56.62 3.51 1.36 5.48 4.33 10.7 9 16.29 13.16a297.77 297.77 0 0 0 51.63 31.09c10.8 5 21.81 9.61 32.79 14.22 1.83.77 4 .68 6 1a65.06 65.06 0 0 0 .34-6.53 9.18 9.18 0 0 0-1.22-3.24c-3.25-6.9-6.4-13.86-9.83-20.68-7.68-15.27-15.24-30.62-23.38-45.65-4.58-8.46-10.2-16.36-15.37-24.49-1.8-2.85-1.15-5.06 1-7.59 4.55-5.29 8.84-10.81 13-16.4 5-6.73 11.44-10.34 19.9-10.65a120.53 120.53 0 0 0 16.85-1.6c5.79-1 11.44-2.86 17.16-4.3 1.44-.36 3.25-.13 4.33-.93 1.93-1.47 5.09-3.77 4.85-5.27ZM155.35 80.7a19.14 19.14 0 0 1-14.89.4l-.66-1.62c6.19-3.75 12.34-7.57 18.65-11.08.42-.24 3.06 1.82 3.06 2.82a9.81 9.81 0 0 1-6.16 9.5Z"/></svg>